<?xml version="1.0" standalone="no"?>
<!DOCTYPE svg PUBLIC "-//W3C//DTD SVG 20010904//EN"
 "http://www.w3.org/TR/2001/REC-SVG-20010904/DTD/svg10.dtd">
<svg version="1.0" xmlns="http://www.w3.org/2000/svg"
 width="120.000000pt" height="120.000000pt" viewBox="0 0 120.000000 120.000000"
 preserveAspectRatio="xMidYMid meet">
<metadata>
Created by potrace 1.11, written by Peter Selinger 2001-2013
</metadata>
<g transform="translate(0.000000,120.000000) scale(0.100000,-0.100000)"
fill="#000000" stroke="none">
<path d="M1115 1011 c-3 -2 -5 -13 -5 -23 0 -12 -8 -18 -22 -19 -40 -3 -83 -7
-83 -8 0 -1 -22 -4 -50 -6 -27 -2 -77 -7 -110 -11 -98 -11 -100 -11 -106 11
-3 12 -12 19 -23 17 -13 -2 -16 1 -10 10 4 7 -2 5 -13 -5 -11 -9 -23 -14 -26
-10 -4 3 -7 -5 -7 -19 0 -25 -2 -26 -82 -33 -46 -3 -94 -8 -108 -10 -14 -2
-56 -6 -93 -9 -38 -3 -73 -8 -78 -11 -5 -4 -9 3 -9 14 0 21 -21 29 -57 23 -18
-3 -23 -11 -23 -36 0 -18 5 -37 11 -43 9 -9 4 -33 -17 -94 -24 -68 -34 -83
-56 -91 -21 -8 -28 -17 -28 -37 0 -15 5 -32 11 -38 16 -16 -44 -197 -65 -194
-33 5 -37 0 -34 -36 3 -37 4 -38 38 -35 19 1 37 7 40 12 3 5 15 8 25 6 11 -2
43 -7 70 -10 28 -4 66 -10 85 -12 19 -3 46 -7 59 -9 50 -9 111 -17 118 -17 18
0 43 -20 43 -34 0 -11 9 -13 36 -10 20 2 39 8 43 13 7 10 8 10 76 -1 28 -4 65
-10 84 -13 18 -2 42 -6 53 -8 10 -2 55 -9 99 -16 68 -10 79 -14 79 -31 0 -16
6 -19 38 -16 32 3 37 7 40 29 2 15 -4 34 -13 43 -11 11 -15 25 -11 40 3 13 8
41 12 62 28 188 36 213 70 214 7 0 10 13 8 31 -4 36 -12 51 -24 44 -4 -2 -2
27 6 66 7 38 16 87 19 108 18 118 20 126 43 129 19 3 22 9 20 43 -1 38 -2 39
-35 37 -19 -1 -36 -4 -38 -7z"/>
</g>
</svg>
